<?xml version="1.0" encoding="utf-8"?>
<!-- Generator: Adobe Illustrator 14.0.0, SVG Export Plug-In . SVG Version: 6.00 Build 43363)  -->
<!DOCTYPE svg PUBLIC "-//W3C//DTD SVG 1.1//EN" "http://www.w3.org/Graphics/SVG/1.1/DTD/svg11.dtd">
<svg version="1.1" id="Ebene_1" xmlns="http://www.w3.org/2000/svg" xmlns:xlink="http://www.w3.org/1999/xlink" x="0px" y="0px"
	 width="260.594px" height="350.594px" viewBox="0 0 260.594 350.594" enable-background="new 0 0 260.594 350.594"
	 xml:space="preserve">
<polygon fill="#12202D" stroke="#3FD1CD" stroke-width="5" points="51.085,124.856 82.536,152.333 15.42,150.445 69.514,234.24 
	115.272,267.594 91.297,340.516 199.659,206.935 247.181,82.03 213.769,54.055 198.257,61.214 229.945,31.118 185.03,7 
	64.744,50.888 53.036,107 86.203,98 "/>
<g>
	<path fill="#FFFFFF" d="M179.515,28.651l19.752,12.792l-78.716,69.588l85.335-41.193l19.043,17.071
		c0,0-38.776,146.031-96.043,156.348C94.569,249.438,43,165.149,43,165.149l72.778,1.789c0,0-31.935,2.746-30.25,4.877
		c7.615,9.642,23.686,32.808,37.684,33.261c31.046,1.007,57.037-94.927,57.037-94.927L103.286,145l-27.277-21.161l68.23-58.749
		L72.286,88.75l4.147-21.18L179.515,28.651z"/>
</g>
<g opacity="0.15">
	<path fill="#12202D" d="M123.211,205.076c31.046,1.007,57.037-94.927,57.037-94.927L103.286,145l9.793-19.269l7.472-14.7
		l85.335-41.193l19.043,17.071c0,0-38.776,146.031-96.043,156.348"/>
</g>
<polygon fill="#231F20" stroke="#3CD6AA" stroke-width="5" points="94.825,343.327 199.845,214.098 202.85,245.07 "/>
<g id="Ebene_4">
	<polygon opacity="0.2" fill="#12202D" points="177.786,36.75 156.161,43.5 116.661,54.875 178.588,31.701 194.921,41.701 	"/>
	<path opacity="0.25" fill="#12202D" d="M202.786,78.5l-36.5,14l39.125-19.25l16.333,15c0,0-40.458,143.25-92.833,154
		c-0.986,0.202,40.125,2.5,86.375-147.25L202.786,78.5z"/>
</g>
</svg>
